<?xml version="1.0" encoding="iso-8859-1"?>
<!-- Uploaded to: SVG Repo, www.svgrepo.com, Generator: SVG Repo Mixer Tools -->
<svg height="800px" width="800px" version="1.1" id="Layer_1" xmlns="http://www.w3.org/2000/svg" xmlns:xlink="http://www.w3.org/1999/xlink" 
	 viewBox="0 0 392.598 392.598" xml:space="preserve">
<path style="fill:#FFFFFF;" d="M21.818,103.628v256.194c0,6.012,4.848,10.925,10.925,10.925h327.111
	c6.012,0,10.925-4.848,10.925-10.925V103.628H21.818z"/>
<path style="fill:#FFC10D;" d="M70.885,135.434c6.012,0,10.925,4.848,10.925,10.925c0,6.012-4.848,10.925-10.925,10.925H43.604
	v23.79h12.412c6.012,0,10.925,4.848,10.925,10.925c0,6.077-4.848,10.925-10.925,10.925H43.604v124.186
	c0,12.024,9.762,21.786,21.786,21.786h261.754c12.024,0,21.786-9.762,21.786-21.786V103.628H43.604v31.806H70.885z"/>
<path style="fill:#56ACE0;" d="M370.78,32.711c0-6.012-4.848-10.925-10.925-10.925H32.743c-6.012,0-10.925,4.848-10.925,10.925
	v49.067H370.78L370.78,32.711L370.78,32.711z"/>
<g>
	<path style="fill:#194F82;" d="M155.248,42.602h-27.41c-6.012,0-10.925,4.848-10.925,10.925s4.848,10.925,10.925,10.925h27.41
		c6.012,0,10.925-4.848,10.925-10.925S161.325,42.602,155.248,42.602z"/>
	<path style="fill:#194F82;" d="M80.776,42.602H53.43c-6.012,0-10.925,4.848-10.925,10.925s4.913,10.861,10.925,10.861h27.41
		c6.012,0,10.925-4.848,10.925-10.925S86.788,42.602,80.776,42.602z"/>
	<path style="fill:#194F82;" d="M359.855,0H32.743C14.707,0,0.032,14.675,0.032,32.711v327.111
		c0,18.101,14.675,32.776,32.711,32.776h327.111c18.036,0,32.711-14.675,32.711-32.711V32.711C392.566,14.675,377.891,0,359.855,0z
		 M370.78,359.822c0,6.012-4.848,10.925-10.925,10.925H32.743c-6.012,0-10.925-4.848-10.925-10.925V103.628h21.786h305.325h21.786
		v256.194H370.78z M21.818,32.711c0-6.012,4.848-10.925,10.925-10.925h327.111c6.012,0,10.925,4.848,10.925,10.925v49.067H21.818
		V32.711z"/>
	<path style="fill:#194F82;" d="M340.848,42.602H201.729c-6.012,0-10.925,4.848-10.925,10.925s4.848,10.861,10.925,10.861h139.248
		c6.012,0,10.925-4.848,10.925-10.925S346.925,42.602,340.848,42.602z"/>
</g>
<circle style="fill:#FFFFFF;" cx="168.048" cy="223.03" r="74.537"/>
<g>
	<path style="fill:#194F82;" d="M353.455,342.691L251.96,269.834c7.758-13.834,12.218-29.802,12.218-46.804
		c0-53.075-43.055-96.129-96.129-96.129s-96.129,43.055-96.129,96.129s43.055,96.129,96.129,96.129
		c28.251,0,53.527-12.283,71.176-31.677l101.56,72.921c4.848,3.556,11.766,2.392,15.192-2.457
		C359.531,353.034,358.368,346.182,353.455,342.691z M168.048,297.632c-41.18,0-74.537-33.358-74.537-74.537
		s33.358-74.537,74.537-74.537s74.537,33.358,74.537,74.537S209.228,297.632,168.048,297.632z"/>
	<path style="fill:#194F82;" d="M128.549,264.663c5.495,2.392,11.96-0.129,14.352-5.624l3.426-7.758h42.667l3.426,7.758
		c2.521,5.818,9.115,8.016,14.352,5.624c5.495-2.392,8.016-8.792,5.624-14.352l-34.715-79.968c-1.681-4.008-5.624-6.594-9.956-6.594
		c-4.331,0-8.275,2.521-9.956,6.594l-34.844,80.032C120.469,255.871,123.055,262.271,128.549,264.663z M167.661,202.149
		l11.895,27.345H155.83L167.661,202.149z"/>
</g>
</svg>