<?xml version="1.0" encoding="iso-8859-1"?>
<!-- Uploaded to: SVG Repo, www.svgrepo.com, Generator: SVG Repo Mixer Tools -->
<svg version="1.1" id="Layer_1" xmlns="http://www.w3.org/2000/svg" xmlns:xlink="http://www.w3.org/1999/xlink" 
	 viewBox="0 0 512.128 512.128" xml:space="preserve">
<rect x="0.128" y="99.12" style="fill:#B20B18;" width="512" height="368.08"/>
<rect x="16.144" y="115.168" style="fill:#D80E47;" width="480" height="336"/>
<g style="opacity:0.35;">
	<path style="fill:#FFFFFF;" d="M492.128,119.168v328h-472v-328L492.128,119.168 M496.128,115.168h-480v336h480V115.168
		L496.128,115.168z"/>
</g>
<path d="M512,99.12V73.68c0-15.816-12.936-28.752-28.752-28.752h-368.24H28.752C12.944,44.928,0,57.864,0,73.68v25.432h512V99.12z"
	/>
<path style="opacity:0.25;fill:#FFFFFF;enable-background:new    ;" d="M147.04,44.928h-32.024H28.752
	C12.936,44.928,0,57.864,0,73.68v25.432h115.888L147.04,44.928z"/>
<circle style="fill:#D80E47;" cx="40.536" cy="72.024" r="8.184"/>
<circle style="fill:#05C3D6;" cx="65.096" cy="72.024" r="8.184"/>
<g>
	<circle style="fill:#FFFFFF;" cx="89.656" cy="72.024" r="8.184"/>
	<path style="fill:#FFFFFF;" d="M428.256,86.4H170.88c-7.904,0-14.376-6.472-14.376-14.376l0,0c0-7.904,6.472-14.376,14.376-14.376
		h257.376c7.904,0,14.376,6.472,14.376,14.376l0,0C442.632,79.928,436.16,86.4,428.256,86.4z"/>
</g>
<path d="M180.576,65.464l1.968,7.56c0.432,1.672,0.832,3.2,1.112,4.752h0.096c0.336-1.512,0.832-3.112,1.32-4.72l2.432-7.592h2.28
	l2.304,7.456c0.552,1.784,0.984,3.344,1.32,4.856h0.096c0.24-1.512,0.648-3.08,1.144-4.832l2.12-7.488h2.68l-4.8,14.888h-2.464
	l-2.288-7.096c-0.52-1.656-0.952-3.144-1.32-4.888h-0.064c-0.368,1.784-0.832,3.328-1.352,4.92l-2.4,7.08h-2.456l-4.496-14.888
	h2.768V65.464z"/>
<path d="M203.552,65.464l1.968,7.56c0.432,1.672,0.832,3.2,1.112,4.752h0.096c0.336-1.512,0.832-3.112,1.32-4.72l2.432-7.592h2.28
	l2.304,7.456c0.552,1.784,0.984,3.344,1.32,4.856h0.096c0.24-1.512,0.648-3.08,1.144-4.832l2.12-7.488h2.68l-4.8,14.888h-2.464
	l-2.288-7.096c-0.52-1.656-0.952-3.144-1.32-4.888h-0.064c-0.368,1.784-0.832,3.328-1.352,4.92l-2.4,7.08h-2.464l-4.488-14.896
	H203.552z"/>
<path d="M226.52,65.464l1.968,7.56c0.432,1.672,0.832,3.2,1.112,4.752h0.096c0.336-1.512,0.832-3.112,1.32-4.72l2.432-7.592h2.28
	l2.304,7.456c0.552,1.784,0.984,3.344,1.32,4.856h0.096c0.24-1.512,0.648-3.08,1.144-4.832l2.12-7.488h2.68l-4.8,14.888h-2.464
	l-2.288-7.096c-0.52-1.656-0.952-3.144-1.32-4.888h-0.064c-0.368,1.784-0.832,3.328-1.352,4.92l-2.4,7.08h-2.464l-4.496-14.888
	h2.776V65.464z"/>
<path d="M246.2,78.76c0-1.144,0.768-1.936,1.84-1.936s1.816,0.8,1.816,1.936c0,1.112-0.704,1.936-1.84,1.936
	C246.928,80.696,246.2,79.872,246.2,78.76z"/>
<g>
	<path style="fill:#FFFFFF;" d="M80.744,281.088l119.584-55.552v26.408l-90.432,39.608v0.504l90.432,39.608v26.408L80.744,302.52
		C80.744,302.52,80.744,281.088,80.744,281.088z"/>
	<path style="fill:#FFFFFF;" d="M218.792,368.04l53.312-180.632h25.16L243.952,368.04H218.792z"/>
	<path style="fill:#FFFFFF;" d="M431.32,303.256l-119.584,54.808v-26.408l92.432-39.608v-0.504l-92.432-39.608v-26.408
		l119.584,54.808L431.32,303.256L431.32,303.256z"/>
</g>
</svg>