<?xml version="1.0" encoding="iso-8859-1"?>
<!-- Uploaded to: SVG Repo, www.svgrepo.com, Generator: SVG Repo Mixer Tools -->
<svg fill="#000000" height="800px" width="800px" version="1.1" id="Capa_1" xmlns="http://www.w3.org/2000/svg" xmlns:xlink="http://www.w3.org/1999/xlink" 
	 viewBox="0 0 490 490" xml:space="preserve">
<g>
	<g>
		<g>
			<path d="M0,88.3V490h490V88.3H0z M135.7,349.2l-38.9-28.4l-38.9,28.4l14.4-45.9l-38.9-28.4h48.2L96.4,229l14.8,45.9h48.2
				l-38.9,28.4L135.7,349.2z M283.9,349.2L245,320.8l-38.9,28.4l14.8-45.9L182,274.9h48.2L245,229l14.8,45.9H308l-38.9,28.4
				L283.9,349.2z M432.4,349.2l-38.9-28.4l-38.9,28.4l14.4-45.9l-38.9-28.4h48.2l14.8-45.9l14.8,45.9h48.2l-38.9,28.4L432.4,349.2z"
				/>
			<path d="M490,0H0v68.8h490V0z M334.1,43.9H30.7c-5.4,0-9.7-4.3-9.7-9.7s4.3-9.7,9.7-9.7H334c5.4,0,9.7,4.3,9.7,9.7
				S339.5,43.9,334.1,43.9z M396.3,43.9h-19.1c-5.4,0-9.7-4.3-9.7-9.7s4.3-9.7,9.7-9.7h19.1c5.4,0,9.7,4.3,9.7,9.7
				S401.7,43.9,396.3,43.9z M459.3,43.9h-19.1c-5.4,0-9.7-4.3-9.7-9.7s4.3-9.7,9.7-9.7h19.1c5.4,0,9.7,4.3,9.7,9.7
				S464.7,43.9,459.3,43.9z"/>
		</g>
	</g>
</g>
</svg>