<?xml version="1.0" encoding="iso-8859-1"?>
<!-- Uploaded to: SVG Repo, www.svgrepo.com, Generator: SVG Repo Mixer Tools -->
<svg version="1.1" id="Layer_1" xmlns="http://www.w3.org/2000/svg" xmlns:xlink="http://www.w3.org/1999/xlink" 
	 viewBox="0 0 512 512" xml:space="preserve">
<rect y="73.28" style="fill:#CCCCCC;" width="512" height="368.08"/>
<rect x="16" y="89.328" style="fill:#F2F2F2;" width="480" height="336"/>
<path d="M512,73.28V47.84c0-15.816-12.936-28.752-28.752-28.752h-368.24H28.752C12.936,19.088,0,32.024,0,47.84v25.432h512V73.28z"
	/>
<g style="opacity:0.25;">
	<path style="fill:#FFFFFF;" d="M147.032,19.088h-32.024H28.752C12.936,19.088,0,32.024,0,47.84v25.432h115.888L147.032,19.088z"/>
</g>
<circle style="fill:#D80E47;" cx="40.536" cy="46.184" r="8.184"/>
<circle style="fill:#05C3D6;" cx="65.096" cy="46.184" r="8.184"/>
<g>
	<circle style="fill:#FFFFFF;" cx="89.648" cy="46.184" r="8.184"/>
	<path style="fill:#FFFFFF;" d="M428.256,60.56H170.88c-7.904,0-14.376-6.472-14.376-14.376l0,0c0-7.904,6.472-14.376,14.376-14.376
		h257.376c7.904,0,14.376,6.472,14.376,14.376l0,0C442.632,54.088,436.16,60.56,428.256,60.56z"/>
</g>
<path d="M180.576,39.624l1.968,7.56c0.432,1.672,0.832,3.2,1.112,4.752h0.096c0.336-1.512,0.832-3.112,1.32-4.72l2.432-7.592h2.28
	l2.304,7.456c0.552,1.784,0.984,3.344,1.32,4.856h0.096c0.24-1.512,0.648-3.08,1.144-4.832l2.12-7.488h2.68l-4.8,14.888h-2.464
	l-2.288-7.096c-0.52-1.656-0.952-3.144-1.32-4.888h-0.064c-0.368,1.784-0.832,3.328-1.352,4.92l-2.4,7.08h-2.464L177.8,39.632h2.776
	V39.624z"/>
<path d="M203.544,39.624l1.968,7.56c0.432,1.672,0.832,3.2,1.112,4.752h0.096c0.336-1.512,0.832-3.112,1.32-4.72l2.432-7.592h2.28
	l2.304,7.456c0.552,1.784,0.984,3.344,1.32,4.856h0.096c0.24-1.512,0.648-3.08,1.144-4.832l2.12-7.488h2.68l-4.8,14.888h-2.464
	l-2.288-7.096c-0.52-1.656-0.952-3.144-1.32-4.888h-0.064c-0.368,1.784-0.832,3.328-1.352,4.92l-2.4,7.08h-2.464l-4.496-14.888
	h2.776V39.624z"/>
<path d="M226.512,39.624l1.968,7.56c0.432,1.672,0.832,3.2,1.112,4.752h0.096c0.336-1.512,0.832-3.112,1.32-4.72l2.432-7.592h2.28
	l2.304,7.456c0.552,1.784,0.984,3.344,1.32,4.856h0.096c0.24-1.512,0.648-3.08,1.144-4.832l2.12-7.488h2.68l-4.8,14.888h-2.464
	l-2.288-7.096c-0.52-1.656-0.952-3.144-1.32-4.888h-0.064c-0.368,1.784-0.832,3.328-1.352,4.92l-2.4,7.08h-2.456l-4.496-14.888
	h2.768V39.624z"/>
<path d="M246.192,52.92c0-1.144,0.768-1.936,1.84-1.936s1.816,0.8,1.816,1.936c0,1.112-0.704,1.936-1.84,1.936
	C246.928,54.856,246.192,54.032,246.192,52.92z"/>
<g>
	<rect x="461.328" y="44.552" style="fill:#FFFFFF;" width="23" height="4"/>
	<polygon style="fill:#FFFFFF;" points="474.592,58.48 471.752,55.656 480.856,46.552 471.752,37.448 474.592,34.624 
		486.512,46.552 	"/>
</g>
<polygon style="fill:#C9C9C9;" points="429.824,41.536 422.168,51.44 414.512,41.536 "/>
<path style="fill:#FFFFFF;" d="M492,93.328v328H20v-328L492,93.328 M496,89.328H16v336h480V89.328L496,89.328z"/>
<polygon style="fill:#05C3D6;" points="414.16,386.944 256,492.912 97.84,386.944 256,280.976 "/>
<polygon style="fill:#D80E47;" points="414.16,313.536 256,419.504 97.84,313.536 256,207.576 "/>
<polygon style="fill:#05C3D6;" points="414.16,240.136 256,346.096 97.84,240.136 256,134.168 "/>
</svg>