<?xml version="1.0" encoding="iso-8859-1"?>
<!-- Uploaded to: SVG Repo, www.svgrepo.com, Generator: SVG Repo Mixer Tools -->
<svg height="800px" width="800px" version="1.1" id="Layer_1" xmlns="http://www.w3.org/2000/svg" xmlns:xlink="http://www.w3.org/1999/xlink" 
	 viewBox="0 0 512.001 512.001" xml:space="preserve">
<path style="fill:#CAD1D8;" d="M24,16h464c13.254,0,24,10.745,24,24v432c0,13.254-10.745,24-24,24H24C10.745,496,0,485.255,0,472V40
	C0,26.745,10.745,16,24,16z"/>
<path style="fill:#FFFFFF;" d="M24,80h464c4.418,0,8,3.582,8,8v384c0,4.418-3.582,8-8,8H24c-4.418,0-8-3.582-8-8V88
	C16,83.582,19.582,80,24,80z"/>
<path style="fill:#595A66;" d="M136.001,200.001h240c8.837,0,16,7.163,16,16v160l0,0H120l0,0V216
	C120,207.164,127.164,200.001,136.001,200.001z"/>
<g>
	<circle style="fill:#9BA7AF;" cx="24.002" cy="47.995" r="7.998"/>
	<circle style="fill:#9BA7AF;" cx="56.002" cy="47.995" r="7.998"/>
	<circle style="fill:#9BA7AF;" cx="88.002" cy="47.995" r="7.998"/>
</g>
<path style="fill:#E2E5E7;" d="M120,40h368c4.418,0,8,3.582,8,8l0,0c0,4.418-3.582,8-8,8H120c-4.418,0-8-3.582-8-8l0,0
	C112,43.582,115.582,40,120,40z"/>
<g>
	<path style="fill:#CAD1D8;" d="M152.001,120h208c4.418,0,8,3.582,8,8l0,0c0,4.418-3.582,8.001-8,8.001h-208
		c-4.418,0-8.001-3.582-8.001-8.001l0,0C144,123.582,147.582,120,152.001,120z"/>
	<path style="fill:#CAD1D8;" d="M192,152.001h128c4.418,0,8,3.582,8,8l0,0c0,4.418-3.582,8.001-8,8.001H192
		c-4.418,0-8.001-3.582-8.001-8.001l0,0C184.001,155.582,187.582,152.001,192,152.001z"/>
</g>
<path style="fill:#ABE1FA;" d="M136.001,208h240c4.418,0,8,3.582,8,8.001v144c0,4.418-3.582,8-8,8h-240
	c-4.418,0-8.001-3.582-8.001-8v-144C128,211.582,131.582,208,136.001,208z"/>
<circle style="fill:#FDBA4D;" cx="180.004" cy="244.004" r="20.004"/>
<path style="fill:#FFFFFF;" d="M384,346.64l-77.76-77.76c-4.135-4.175-10.872-4.208-15.047-0.072
	c-0.025,0.024-0.049,0.049-0.072,0.072L192,368h181.36c5.876,0,10.64-4.764,10.64-10.64l0,0L384,346.64L384,346.64z"/>
<path style="fill:#CAD1D8;" d="M341.36,314.64L341.36,314.64c-2.938,2.935-2.94,7.697-0.005,10.635
	c0.002,0.002,0.003,0.003,0.005,0.005l6.24,6.24c9.656,9.682,15.066,22.806,15.04,36.48H376c4.418,0,8-3.582,8-8v-13.36l-32-32
	c-2.935-2.938-7.697-2.94-10.635-0.005C341.363,314.637,341.362,314.638,341.36,314.64z"/>
<path style="fill:#FFFFFF;" d="M136.001,368h130.64L200,291.84c-3.875-4.418-10.596-4.859-15.015-0.985
	c-0.349,0.307-0.679,0.636-0.985,0.985l-56,54.8v13.36C128,364.418,131.582,368,136.001,368z"/>
<g>
	<path style="fill:#CAD1D8;" d="M258.24,334c-6.423-7.273-16.952-9.279-25.6-4.88l34,38.88H288L258.24,334z"/>
	<path style="fill:#CAD1D8;" d="M120,376h272l0,0v24c0,4.418-3.582,8-8,8H128c-4.418,0-8.001-3.582-8.001-8L120,376L120,376z"/>
	<path style="fill:#CAD1D8;" d="M301.68,434.32L288,420.72v-12.72c0-4.418-3.582-8-8-8h-48c-4.418,0-8.001,3.582-8.001,8v12.72
		l-13.68,13.68c-3.093,3.155-3.042,8.221,0.113,11.314c1.487,1.458,3.485,2.278,5.567,2.287h80c4.418,0.026,8.02-3.535,8.046-7.954
		C304.059,437.897,303.206,435.833,301.68,434.32z"/>
</g>
<g>
	<circle style="fill:#9BA7AF;" cx="256" cy="391.998" r="7.998"/>
	<path style="fill:#9BA7AF;" d="M262.72,432.72c3.62,9.282,12.598,15.363,22.56,15.28h10.72c4.418,0.026,8.02-3.535,8.046-7.954
		c0.013-2.149-0.84-4.213-2.367-5.726l-13.68-13.6v-12.72h-64c0,4.418,3.582,8,8.001,8h13.2c6.557-0.006,12.454,3.989,14.88,10.08
		L262.72,432.72z"/>
</g>
</svg>