<svg width="150" height="35" viewBox="0 0 150 35" fill="none" xmlns="http://www.w3.org/2000/svg">
<g clip-path="url(#clip0_11_13)">
<path d="M0 18.3724V18.2835C0 9.125 6.8873 1.56701 16.6369 1.56701C20.5725 1.38918 24.5081 2.72294 27.6386 5.21263C28.3542 5.74613 28.712 6.63531 28.712 7.43557C28.712 8.94717 27.4598 10.192 25.8497 10.192C25.2236 10.192 24.6869 10.0142 24.2397 9.65851C22.093 7.79124 19.4097 6.72423 16.5474 6.72423C10.4651 6.72423 5.9034 11.7925 5.9034 18.1057V18.2835C5.9034 24.5967 10.3757 29.7539 16.5474 29.7539C19.4991 29.8428 22.4508 28.6869 24.5975 26.6418C25.0447 26.1972 25.6708 26.0193 26.297 26.0193C27.7281 26.0193 28.8909 27.1753 28.9803 28.6869C28.9803 29.4871 28.6225 30.1985 28.0859 30.732C24.9553 33.6662 20.7513 35.1778 16.3685 35.0889C6.97674 35 0 27.7088 0 18.3724Z" fill="white"/>
<path d="M31.0376 27.442V27.3531C31.0376 22.107 35.1521 19.5284 41.0555 19.5284C43.2916 19.5284 45.4383 19.884 47.585 20.5064V19.884C47.585 16.4162 45.4383 14.549 41.5921 14.549C39.7138 14.549 37.9249 14.8157 36.2254 15.5271C35.9571 15.616 35.6887 15.7049 35.3309 15.7049C34.0787 15.7049 33.0054 14.7268 33.0054 13.393C33.0054 12.4149 33.6315 11.5258 34.5259 11.1701C37.0304 10.192 39.6243 9.74742 42.3077 9.74742C45.975 9.74742 48.6583 10.7255 50.3578 12.5039C52.1467 14.2822 52.9517 16.8608 52.9517 20.0619V32.0657C52.9517 33.4884 51.7889 34.7332 50.3578 34.7332H50.2683C48.8372 34.8222 47.6744 33.8441 47.585 32.4214C47.585 32.4214 47.585 32.4214 47.585 32.3325V31.4433C45.6172 33.7552 42.7549 35.0889 39.7138 35C35.0626 35 31.0376 32.3325 31.0376 27.442ZM47.6744 25.6637V23.9742C45.8855 23.3518 44.0072 22.9961 42.1288 22.9961C38.551 22.9961 36.4043 24.5077 36.4043 27.0863V27.1753C36.4043 29.576 38.4615 30.9098 41.1449 30.9098C44.9016 30.9098 47.6744 28.7758 47.6744 25.6637Z" fill="white"/>
<path d="M58.1395 3.25644C58.1395 1.74485 59.3023 0.5 60.8229 0.5C62.3435 0.5 63.5957 1.74485 63.5957 3.25644V31.8879C63.5957 33.3995 62.3435 34.6443 60.8229 34.6443C59.3023 34.6443 58.0501 33.3995 58.0501 31.8879V3.25644H58.1395Z" fill="white"/>
<path d="M69.4097 3.25644C69.4097 1.74485 70.5725 0.5 72.093 0.5C73.6136 0.5 74.8658 1.74485 74.8658 3.25644V31.8879C74.8658 33.3995 73.6136 34.6443 72.093 34.6443C70.5725 34.6443 69.3202 33.3995 69.3202 31.8879L69.4097 3.25644Z" fill="white"/>
<path d="M83.2737 3.34536C83.2737 2.72294 83.8104 2.18943 84.4365 2.10052H96.78C100.716 2.10052 103.936 3.34536 105.814 5.30155C107.424 6.90206 108.229 9.03608 108.229 11.3479V11.4369C108.229 16.8608 104.204 19.9729 98.8372 20.6843L107.961 32.5992C108.14 32.866 108.318 33.1327 108.318 33.3995C108.318 34.1108 107.782 34.6443 107.066 34.6443C106.619 34.6443 106.261 34.3776 105.993 34.0219L96.0644 21.0399H85.6887V33.3995C85.6887 34.0219 85.1521 34.5554 84.5259 34.6443C83.8998 34.6443 83.3632 34.1108 83.2737 33.4884V3.34536ZM96.5116 18.9059C101.878 18.9059 105.903 16.1495 105.903 11.5258V11.4369C105.903 7.0799 102.504 4.32345 96.6905 4.32345H85.6887V18.9059H96.5116Z" fill="white"/>
<path d="M111.36 27.6198V27.5309C111.36 22.6405 115.563 19.884 121.646 19.884C124.24 19.884 126.923 20.2397 129.428 20.8621V19.884C129.428 15.0825 126.565 12.6817 121.735 12.6817C119.41 12.6817 117.174 13.2152 115.027 14.2822C114.848 14.3711 114.669 14.3711 114.49 14.4601C113.953 14.4601 113.417 14.0155 113.417 13.393C113.417 12.9485 113.685 12.5928 114.043 12.4149C116.458 11.259 119.052 10.6366 121.735 10.6366C124.866 10.6366 127.46 11.5258 129.159 13.2152C130.859 14.9936 131.664 17.3943 131.574 19.884V33.5773C131.574 34.1997 131.127 34.7332 130.501 34.7332C129.875 34.7332 129.338 34.2887 129.338 33.6662V33.5773V30.643C127.281 33.5773 123.971 35.1778 120.394 35.0889C116.011 35 111.36 32.5103 111.36 27.6198ZM129.428 25.6637V22.9961C126.834 22.2848 124.15 21.9291 121.467 21.9291C116.458 21.9291 113.775 24.1521 113.775 27.442V27.5309C113.775 30.9098 116.995 32.9549 120.572 32.9549C125.313 32.866 129.428 29.9317 129.428 25.6637Z" fill="white"/>
<path d="M137.925 2.81186C137.925 2.10052 138.462 1.47809 139.267 1.38918C139.267 1.38918 139.267 1.38918 139.356 1.38918C140.161 1.38918 140.787 2.0116 140.787 2.72294V3.5232C140.787 4.32345 140.161 4.94588 139.356 4.94588C138.64 4.94588 138.014 4.32345 138.014 3.61211C138.014 3.61211 138.014 3.61211 138.014 3.5232V2.81186H137.925ZM138.193 11.8814C138.193 11.259 138.64 10.7255 139.267 10.7255C139.893 10.7255 140.429 11.1701 140.429 11.7925V11.8814V33.4884C140.519 34.1108 140.072 34.5554 139.445 34.6443H139.356C138.73 34.6443 138.193 34.1997 138.193 33.5773V33.4884V11.8814Z" fill="white"/>
<path d="M147.764 1.74485C147.764 1.12242 148.211 0.588918 148.837 0.588918C148.837 0.588918 148.837 0.588918 148.927 0.588918C149.553 0.588918 150.089 1.12242 150.089 1.74485V33.5773C150.179 34.1997 149.732 34.6443 149.106 34.7333H149.016C148.39 34.7333 147.853 34.2887 147.853 33.6662V33.5773V1.74485H147.764Z" fill="white"/>
</g>
<defs>
<clipPath id="clip0_11_13">
<rect width="150" height="34.5" fill="white" transform="translate(0 0.5)"/>
</clipPath>
</defs>
</svg>
