<svg width="150" height="32" viewBox="0 0 150 32" fill="none" xmlns="http://www.w3.org/2000/svg">
<g clip-path="url(#clip0_11_193)">
<path d="M51.3838 16.9565V30.487C51.3838 30.9247 51.0197 31.2894 50.5827 31.2894H44.756C44.319 31.2894 43.9548 30.9247 43.9548 30.487V9.11528C43.9548 8.67763 44.319 8.31293 44.756 8.31293H50.5827C51.0197 8.31293 51.3838 8.67763 51.3838 9.11528V10.7929C52.8405 8.9694 54.9162 7.80234 57.7932 7.80234C60.488 7.80234 62.8551 8.89645 64.2753 10.9753C66.0233 8.89645 68.4996 7.80234 71.5222 7.80234C76.657 7.80234 80.1894 10.8294 80.1894 16.6282V30.487C80.1894 30.9247 79.8252 31.2894 79.3882 31.2894H73.5616C73.1246 31.2894 72.7604 30.9247 72.7604 30.487V18.1965C72.7604 15.68 71.3401 14.44 69.4101 14.44C67.8077 14.44 66.5331 15.4612 65.7684 16.9565V30.487C65.7684 30.9247 65.4042 31.2894 64.9672 31.2894H59.1406C58.7036 31.2894 58.3394 30.9247 58.3394 30.487V18.1965C58.3394 15.68 56.9192 14.44 54.9891 14.44C53.3503 14.44 52.1122 15.4612 51.3838 16.9565Z" fill="white"/>
<path d="M89.949 31.7635C85.6519 31.7635 82.0102 28.9188 82.0102 24.5059C82.0102 20.4576 84.6686 18.5976 89.6213 17.2847L95.9578 15.6435C95.7757 14.1118 94.5739 13.3823 92.6438 13.3823C90.9323 13.3823 89.6941 14.0388 89.1478 15.3518C89.0022 15.7165 88.6016 15.9353 88.2374 15.8259L83.2119 14.6223C82.7385 14.5129 82.4836 14.0023 82.6293 13.5647C84.0859 9.66235 88.0554 7.62 92.8988 7.62C99.4173 7.62 103.168 10.6835 103.168 16.1176V30.4871C103.168 30.9247 102.804 31.2894 102.367 31.2894H96.8682C96.4312 31.2894 96.067 30.9612 96.067 30.5235L96.0306 29.32L95.9942 29.3565C94.1005 30.9612 92.2797 31.7635 89.949 31.7635ZM91.8063 26.0012C92.7531 26.0012 93.5178 25.7094 94.6103 25.0894L95.8849 24.3235L95.9213 20.6035L92.6074 21.5153C90.3496 22.1718 89.3663 22.7188 89.3663 23.9953C89.3663 25.4176 90.6045 26.0012 91.8063 26.0012Z" fill="white"/>
<path d="M115.04 20.4576L112.782 22.5365V30.5235C112.782 30.9612 112.418 31.3259 111.981 31.3259H106.264C105.827 31.3259 105.462 30.9612 105.462 30.5235V1.60234C105.462 1.16469 105.827 0.799988 106.264 0.799988H111.981C112.418 0.799988 112.782 1.16469 112.782 1.60234V14.6588L119.446 8.53175C119.592 8.38587 119.774 8.31293 119.993 8.31293H127.021C127.749 8.31293 128.077 9.22469 127.567 9.69881L120.721 15.9353L128.514 30.0859C128.806 30.6329 128.405 31.2529 127.822 31.2529H121.158C120.867 31.2529 120.575 31.0706 120.466 30.8153L115.04 20.4576Z" fill="white"/>
<path d="M139.221 31.8C132.848 31.8 127.021 27.7882 127.021 19.7282C127.021 12.1059 132.629 7.69293 138.747 7.69293C144.865 7.69293 149.745 12.1423 149.927 19.1812C149.964 19.9106 149.964 20.4576 149.964 20.8223C149.964 21.26 149.599 21.6247 149.162 21.6247H134.377C134.596 24.3965 136.817 26.1106 139.621 26.1106C141.624 26.1106 143.227 25.2718 144.392 23.7765C144.647 23.4482 145.12 23.3753 145.448 23.5941L149.162 26.0741C149.527 26.3294 149.636 26.84 149.381 27.2047C147.378 30.1223 144.101 31.8 139.221 31.8ZM134.523 17.1023H142.535C142.498 14.4765 140.568 13.3459 138.529 13.3459C136.672 13.3459 134.741 14.44 134.523 17.1023Z" fill="white"/>
<mask id="mask0_11_193" style="mask-type:luminance" maskUnits="userSpaceOnUse" x="25" y="8" width="9" height="24">
<path d="M26.5113 8.3494H32.2651C32.7021 8.3494 33.0663 8.7141 33.0663 9.15175V30.4506C33.0663 30.8882 32.7021 31.2529 32.2651 31.2529H26.5113C26.0743 31.2529 25.7101 30.8882 25.7101 30.4506V9.15175C25.7101 8.7141 26.0743 8.3494 26.5113 8.3494Z" fill="white"/>
</mask>
<g mask="url(#mask0_11_193)">
<path d="M32.1747 5.94982L18.3018 11.0731L26.5927 33.5901L40.4656 28.4668L32.1747 5.94982Z" fill="white"/>
</g>
<mask id="mask1_11_193" style="mask-type:luminance" maskUnits="userSpaceOnUse" x="-1" y="8" width="18" height="24">
<path d="M9.61399 8.64117L0.0728369 27.6423C-0.109246 28.0435 0.0364203 28.5176 0.437003 28.7L5.57174 31.2894C5.97233 31.4718 6.44574 31.3259 6.62783 30.9247L16.169 11.8871C16.3511 11.4859 16.2054 11.0118 15.8048 10.8294L10.6701 8.23999C10.5608 8.16705 10.4516 8.16705 10.3059 8.16705C10.051 8.20352 9.75965 8.34941 9.61399 8.64117Z" fill="white"/>
</mask>
<g mask="url(#mask1_11_193)">
<path d="M13.8145 2.16235L-8.58145 11.8583L2.50178 37.5346L24.8977 27.8387L13.8145 2.16235Z" fill="white"/>
</g>
<mask id="mask2_11_193" style="mask-type:luminance" maskUnits="userSpaceOnUse" x="13" y="8" width="12" height="24">
<path d="M17.6621 8.71409L13.5834 29.4294C13.5106 29.867 13.7655 30.2682 14.2025 30.3776L19.847 31.5082C20.284 31.5812 20.6846 31.3259 20.7939 30.8882L24.8725 10.1729C24.9454 9.73527 24.6905 9.33409 24.2535 9.22468L18.6089 8.09409C18.5725 8.09409 18.4996 8.09409 18.4632 8.09409C18.0626 8.05762 17.7349 8.31292 17.6621 8.71409Z" fill="white"/>
</mask>
<g mask="url(#mask2_11_193)">
<path d="M23.5786 4.31674L5.87682 10.8438L14.8603 35.2798L32.5621 28.7527L23.5786 4.31674Z" fill="white"/>
</g>
</g>
<defs>
<clipPath id="clip0_11_193">
<rect width="150" height="31" fill="white" transform="translate(0 0.799988)"/>
</clipPath>
</defs>
</svg>
