<svg width="16" height="16" viewBox="0 0 16 16" fill="none" xmlns="http://www.w3.org/2000/svg">
<path fill-rule="evenodd" clip-rule="evenodd" d="M2.33333 4.33333V8.21094V12.3333H9.66667V4.33333H2.33333ZM2.33333 3H13C13.7364 3 14.3333 3.59695 14.3333 4.33333V12.3333C14.3333 13.0697 13.7364 13.6667 13 13.6667H2.33333C1.59695 13.6667 1 13.0697 1 12.3333V4.33333C1 3.59695 1.59695 3 2.33333 3ZM11 4.33333V12.3333H13V4.33333H11ZM3.66667 7C3.66667 6.63181 3.96514 6.33333 4.33333 6.33333H7.66667C8.03486 6.33333 8.33333 6.63181 8.33333 7C8.33333 7.36819 8.03486 7.66667 7.66667 7.66667H4.33333C3.96514 7.66667 3.66667 7.36819 3.66667 7ZM3.66667 9.66667C3.66667 9.29848 3.96514 9 4.33333 9H5.66667C6.03486 9 6.33333 9.29848 6.33333 9.66667C6.33333 10.0349 6.03486 10.3333 5.66667 10.3333H4.33333C3.96514 10.3333 3.66667 10.0349 3.66667 9.66667Z" fill="#696963"/>
</svg>
